<?xml version="1.0" encoding="UTF-8" standalone="no"?>


<svg width="400" height="400" viewBox="0 0 400 400" version="1.1" id="svg1" xml:space="preserve" xmlns:xlink="http://www.w3.org/1999/xlink" xmlns="http://www.w3.org/2000/svg" xmlns:svg="http://www.w3.org/2000/svg"><g id="layer1" style="display:inline"><rect style="fill:#ffdd55;stroke-width:0.995132;paint-order:stroke fill markers" id="rect2" width="400.23923" height="400.23923" x="1.768456e-08" y="1.1789727e-08"></rect></g><g id="layer2" style="display:inline"><path style="fill:#2a7fff" d="M 0.09190004,327.28603 V 253.30508 C 48.630673,239.53347 97.905381,257.29279 144.24987,270.94633 c 43.24663,10.83921 88.70291,19.08133 133.19922,11.78983 28.35721,-5.47125 57.75682,-20.60213 68.6749,-49.02978 13.1082,-24.31273 12.03748,-56.14552 -6.80292,-77.23605 -22.21394,-27.07542 -58.64516,-37.13924 -92.27601,-39.31272 -55.80798,-3.2361 -107.22213,21.34705 -159.06534,37.91421 -28.164754,9.50728 -57.965769,17.32665 -87.88781996,13.07261 V 1.26697 H 400.09191 V 401.26698 H 0.09190004 Z M 49.535749,227.01892 c -4.767298,-1.40352 2.199012,-23.1833 -2.665754,-24.05148 -6.22877,-1.11161 -11.838773,-0.69823 -12.457786,-3.9263 -0.6807,-3.8414 8.360728,-2.77359 12.327762,-4.99952 3.552637,-1.9934 0.366277,-9.31923 5.14494,-9.33964 3.660157,0.21342 -0.003,6.90335 4.866843,8.49109 6.346766,2.06926 8.303719,1.12825 12.059091,4.70126 3.606009,3.4309 0.86548,30.21956 -4.676546,29.56662 -2.840585,-0.38017 0.64969,-13.86775 0.132405,-19.9168 -0.455208,-5.32352 -6.766979,-6.02885 -9.219797,-4.22417 -2.526578,2.16616 2.301555,25.60407 -5.511198,23.69894 z m 111.912901,-2.26468 c -5.84353,-4.15264 18.76647,-20.64954 13.3948,-25.81932 -2.23654,-2.15248 -8.09917,-2.02773 -11.70903,0.0798 -1.95819,1.14326 -1.74137,5.97182 -6.48919,5.80635 -2.65736,-0.0926 -4.16885,-2.80757 -2.84991,-5.89629 0.76702,-1.79622 2.85934,-4.31618 5.45774,-5.7729 2.29074,-1.28424 5.04932,-1.54341 6.58711,-2.55938 1.48335,-0.98001 -1.18051,-8.66901 3.8763,-8.74718 2.83191,-0.0438 3.36404,4.04234 3.41983,8.25103 0.038,2.86944 6.00271,2.14339 8.43232,5.79405 5.72268,7.90913 -14.00626,35.08482 -20.11997,28.86381 z m 35.55798,-40.67355 c 5.39461,0.49675 -5.25619,21.78246 9.4674,16.72396 12.50032,-3.80304 13.5566,9.70144 0.20635,6.69401 -17.85457,-4.98251 -3.11047,17.53963 -13.04088,17.47486 -9.05449,-0.0591 -5.26332,-41.12596 3.36713,-40.89283 z m 34.66341,40.42569 c -6.49858,-5.79442 18.95129,-21.38495 14.74569,-26.77227 -2.57,-2.25658 -10.2571,-2.5091 -13.62456,-0.0745 -2.28507,1.65204 -2.15492,5.31133 -5.73476,5.07152 -2.0751,-0.13901 -3.58585,-3.62191 -2.31828,-5.48029 0.89552,-1.31291 1.93042,-3.44672 4.49095,-4.96831 2.46431,-1.46442 6.44864,-2.32067 7.70561,-3.40011 2.10078,-1.80408 0.63404,-7.87409 4.12557,-8.08241 3.66812,-0.0223 3.16209,3.28328 3.17439,7.85915 0.008,3.15605 6.87436,3.56984 8.7414,7.13385 5.70658,7.89118 -14.99904,33.39255 -21.30601,28.71339 z m -139.911472,0.0939 c -4.16534,-6.39904 3.263091,-25.06747 -4.023242,-26.05707 -29.755917,-4.90633 29.281664,-13.20136 20.563984,-2.34779 -3.79073,3.35913 -12.64336,3.95355 -11.074875,13.68245 0.456505,4.64243 2.006997,18.0434 -5.465867,14.72241 z m 34.531572,-30.88647 c 32.80479,-5.67619 27.22978,33.92963 9.2983,34.60858 -16.77627,0.6352 -37.812143,-28.96689 -9.2983,-34.60858 z m 14.24345,25.90599 c 8.35024,-14.54588 -5.54108,-27.85436 -17.86613,-17.35868 -9.83996,8.18228 11.06155,26.78536 17.86613,17.35868 z m 122.8885,4.87191 c -5.84147,-3.10348 12.71152,-11.55136 13.41711,-23.69973 0.13133,-4.85829 -4.0616,-6.51935 -8.03699,-4.34308 -17.97368,19.81159 -2.73734,-26.44958 0.41788,-5.21897 6.78298,-6.38387 31.67354,2.9127 12.87954,6.43466 0.6089,9.50475 -6.72573,32.5046 -18.67754,26.82712 z m 35.66982,-2.25951 c 0.75664,-3.23861 10.4539,-7.11972 15.16512,-13.86348 5.98662,-8.5694 6.52294,-18.67679 8.88176,-18.45387 4.17231,0.43498 3.02973,13.34323 -2.11782,21.41806 -6.80199,10.67008 -23.25831,16.80239 -21.92906,10.89929 z m 1.72985,-32.74848 c 2.82361,-0.0755 3.81689,15.00859 -1.9661,13.27601 -2.50346,-0.75003 -1.90419,-13.17256 1.9661,-13.27601 z m 8.1992,0.39283 c 3.21181,-0.2439 5.46183,13.63924 0.0301,13.39628 -3.3053,-0.14785 -3.9133,-13.1014 -0.0301,-13.39628 z m -99.69701,-5.32352 c 4.098,0.0505 2.71428,11.59579 -0.31381,11.78997 -2.65166,0.17004 -4.465,-11.8489 0.31381,-11.78997 z m 9.58122,-1.12189 c 3.48433,-0.3998 3.53294,11.52795 0.23138,11.8112 -2.25694,0.19363 -4.38763,-11.3343 -0.23138,-11.8112 z" id="path1"></path></g></svg>